<?xml version="1.0" standalone="no"?>
<!DOCTYPE svg PUBLIC "-//W3C//DTD SVG 1.1//EN" "http://www.w3.org/Graphics/SVG/1.1/DTD/svg11.dtd" >
<svg xmlns="http://www.w3.org/2000/svg">
<metadata>Generated by IcoMoon</metadata>
<defs>
<font id="icon" horiz-adv-x="1024">
<font-face units-per-em="1024" ascent="960" descent="-64" />
<missing-glyph horiz-adv-x="1024" />
<glyph unicode="&#x20;" horiz-adv-x="512" d="" />
<glyph unicode="&#xe900;" glyph-name="book" d="M924.262 817.818h-255.427c-48.41 0-93.901-17.884-128.195-50.478-11.674-11.069-20.797-23.839-28.703-37.094-7.91 13.256-17.029 25.907-28.826 37.094-34.304 32.594-79.79 50.473-128.2 50.473h-255.176c-13.496 0-24.443-10.332-24.443-23.229v-641.956c0-12.892 10.947-23.229 24.448-23.229h229.755c9.61 0 19.343-0.732 29.071-2.55 9.851-1.833 19.215-4.383 28.093-7.793l116.403-43.054c0.241-0.118 0.486 0 0.727-0.118 2.678-0.855 5.356-1.459 8.151-1.459 2.801 0 5.468 0.481 8.151 1.459 0.118 0.118 0.486 0.118 0.609 0.118l111.775 41.354c9.234 3.52 20.295 6.635 31.693 8.8l1.27 0.201c10.22 1.905 21.994 3.010 34.021 3.041h224.8c13.507 0 24.453 10.46 24.453 23.229v642.079c0 12.774-10.947 23.107-24.453 23.107zM367.437 172.564c-11.409 2.090-24.539 3.286-37.948 3.287h-205.426v595.63h230.973c35.389 0 68.721-13.138 93.773-37.1 25.057-23.839 38.922-55.46 38.922-89.277v-513.398l-83.318 30.776c-10.336 3.923-22.742 7.415-35.519 9.86l-1.453 0.231zM899.932 175.852h-200.33c-14.592 0-29.189-1.213-43.049-3.773-14.111-2.673-28.221-6.441-41.6-11.433l-78.572-28.948v513.526c0 33.69 13.742 65.434 38.799 89.277 25.052 23.839 58.383 37.094 93.773 37.094h231.096v-595.738h-0.118z" />
<glyph unicode="&#xe901;" glyph-name="arrow_lift" d="M246.784 491.691l443.051 442.709c24.917 24.917 62.464 24.917 87.381 0s24.917-62.464 0-87.381l-399.36-399.36 399.36-399.36c24.917-24.917 24.917-62.464 0-87.381s-62.464-24.917-87.381 0l-443.051 443.392c-24.917 24.917-24.917 62.464 0 87.381z" />
<glyph unicode="&#xe902;" glyph-name="category" d="M401.080 893.987h-257.077c-43.625 0-79.101-35.485-79.101-79.101v-257.077c0-43.615 35.475-79.101 79.101-79.101h257.077c43.625 0 79.1 35.485 79.1 79.101v257.077c0 43.615-35.475 79.101-79.1 79.101zM440.63 557.809c0-21.813-17.747-39.55-39.55-39.55h-257.077c-21.804 0-39.55 17.737-39.55 39.55v257.077c0 21.813 17.747 39.551 39.55 39.551h257.077c21.803 0 39.55-17.738 39.55-39.551v-257.077zM875.684 893.987h-257.077c-43.625 0-79.101-35.485-79.101-79.101v-257.077c0-43.615 35.476-79.101 79.101-79.101h257.078c43.625 0 79.1 35.485 79.1 79.101v257.077c-0.001 43.615-35.476 79.101-79.101 79.101zM915.233 557.809c0-21.813-17.747-39.55-39.549-39.55h-257.078c-21.804 0-39.55 17.737-39.55 39.55v257.077c0 21.813 17.747 39.551 39.55 39.551h257.078c21.803 0 39.549-17.738 39.549-39.551v-257.077zM401.080 419.383h-257.077c-43.625 0-79.101-35.486-79.101-79.101v-257.078c0-43.605 35.475-79.101 79.101-79.101h257.077c43.625 0 79.1 35.495 79.1 79.101v257.078c0 43.614-35.475 79.101-79.1 79.101zM440.63 83.206c0-21.822-17.747-39.55-39.55-39.55h-257.077c-21.804 0-39.55 17.728-39.55 39.55v257.077c0 21.812 17.747 39.55 39.55 39.55h257.077c21.803 0 39.55-17.738 39.55-39.55v-257.077zM875.684 419.383h-257.077c-43.625 0-79.101-35.486-79.101-79.101v-257.078c0-43.605 35.476-79.101 79.101-79.101h257.078c43.625 0 79.1 35.495 79.1 79.101v257.078c-0.001 43.614-35.476 79.101-79.101 79.101zM915.233 83.206c0-21.822-17.747-39.55-39.549-39.55h-257.078c-21.804 0-39.55 17.728-39.55 39.55v257.077c0 21.812 17.747 39.55 39.55 39.55h257.078c21.803 0 39.549-17.738 39.549-39.55v-257.077z" />
<glyph unicode="&#xe903;" glyph-name="down" d="M999.239 708.018c0-15.021-5.711-30.036-17.17-41.5l-430.196-430.178c-22.882-22.915-60.039-22.915-82.957 0l-430.239 430.178c-22.916 22.922-22.916 60.036 0 82.958 22.883 22.916 60.039 22.916 82.956 0l388.744-388.683 388.695 388.684c22.923 22.916 60.039 22.916 82.962 0 11.495-11.423 17.205-26.443 17.205-41.459v0z" />
<glyph unicode="&#xe904;" glyph-name="font_smaller" d="M765.043 230.4l-62.918 147.738h-187.642l-66.022-147.738h-63.309l172.141 377.178 21.926 44.934h57.421l25.21-44.934 166.515-377.178h-63.322zM610.547 593.075l-67.757-151.622h132.365l-64.608 151.622zM195.2 462.56h189.952v-42.214h-189.952v42.214z" />
<glyph unicode="&#xe905;" glyph-name="line_spacing_big" d="M125.952 759.296h781.824c20.992 0 37.888 16.896 37.888 37.888s-16.896 37.888-37.888 37.888h-781.824c-20.992 0-37.888-16.896-37.888-37.888 0.512-20.992 17.408-37.888 37.888-37.888zM908.288 658.432h-782.336c-20.992 0-37.888-16.896-37.888-37.888s16.896-37.888 37.888-37.888h781.824c20.992 0 37.888 16.896 37.888 37.888s-16.896 37.888-37.376 37.888zM908.288 481.792h-782.336c-20.992 0-37.888-16.896-37.888-37.888s16.896-37.888 37.888-37.888h781.824c20.992 0 37.888 16.896 37.888 37.888 0.512 20.992-16.896 37.888-37.376 37.888zM908.288 305.664h-782.336c-20.992 0-37.888-16.896-37.888-37.888s16.896-37.888 37.888-37.888h781.824c20.992 0 37.888 16.896 37.888 37.888 0.512 20.48-16.896 37.888-37.376 37.888zM908.288 129.024h-782.336c-20.992 0-37.888-16.896-37.888-37.888s16.896-37.888 37.888-37.888h781.824c20.992 0 37.888 16.896 37.888 37.888 0.512 20.992-16.896 37.888-37.376 37.888z" />
<glyph unicode="&#xe906;" glyph-name="line_spacing_normal" d="M120.32 752.64h793.6c20.992 0 38.4 17.408 38.4 38.4s-17.408 38.4-38.4 38.4h-793.6c-20.992 0-38.4-17.408-38.4-38.4s17.408-38.4 38.4-38.4zM913.92 599.040h-793.6c-20.992 0-38.4-17.408-38.4-38.4s17.408-38.4 38.4-38.4h793.6c20.992 0 38.4 17.408 38.4 38.4s-17.408 38.4-38.4 38.4zM913.92 368.64h-793.6c-20.992 0-38.4-17.408-38.4-38.4s17.408-38.4 38.4-38.4h793.6c20.992 0 38.4 17.408 38.4 38.4s-17.408 38.4-38.4 38.4zM913.92 138.24h-793.6c-20.992 0-38.4-17.408-38.4-38.4s17.408-38.4 38.4-38.4h793.6c20.992 0 38.4 17.408 38.4 38.4s-17.408 38.4-38.4 38.4z" />
<glyph unicode="&#xe907;" glyph-name="line_spacing_small" d="M125.952 734.208h781.824c20.992 0 37.888 16.896 37.888 37.888s-16.896 37.888-37.888 37.888h-781.824c-20.992 0-37.888-16.896-37.888-37.888 0.512-20.992 17.408-37.888 37.888-37.888zM908.288 481.792h-782.336c-20.992 0-37.888-16.896-37.888-37.888s16.896-37.888 37.888-37.888h781.824c20.992 0 37.888 16.896 37.888 37.888 0.512 20.992-16.896 37.888-37.376 37.888zM908.288 154.112h-782.336c-20.992 0-37.888-16.896-37.888-37.888s16.896-37.888 37.888-37.888h781.824c20.992 0 37.888 16.896 37.888 37.888 0.512 20.992-16.896 37.888-37.376 37.888z" />
<glyph unicode="&#xe908;" glyph-name="list1" d="M998.4 140.8h-768c-14.131 0-25.6 11.469-25.6 25.6s11.469 25.6 25.6 25.6h768c14.131 0 25.6-11.469 25.6-25.6s-11.469-25.6-25.6-25.6zM998.4 396.8h-768c-14.131 0-25.6 11.469-25.6 25.6s11.469 25.6 25.6 25.6h768c14.131 0 25.6-11.469 25.6-25.6s-11.469-25.6-25.6-25.6zM998.4 652.8h-768c-14.131 0-25.6 11.469-25.6 25.6s11.469 25.6 25.6 25.6h768c14.131 0 25.6-11.469 25.6-25.6s-11.469-25.6-25.6-25.6zM76.8 601.6c-42.342 0-76.8 34.458-76.8 76.8s34.458 76.8 76.8 76.8 76.8-34.458 76.8-76.8-34.458-76.8-76.8-76.8zM76.8 704c-14.131 0-25.6-11.469-25.6-25.6s11.469-25.6 25.6-25.6 25.6 11.469 25.6 25.6-11.469 25.6-25.6 25.6zM76.8 345.6c-42.342 0-76.8 34.458-76.8 76.8s34.458 76.8 76.8 76.8 76.8-34.458 76.8-76.8c0-42.342-34.458-76.8-76.8-76.8zM76.8 448c-14.131 0-25.6-11.469-25.6-25.6s11.469-25.6 25.6-25.6 25.6 11.469 25.6 25.6-11.469 25.6-25.6 25.6zM76.8 89.6c-42.342 0-76.8 34.458-76.8 76.8s34.458 76.8 76.8 76.8 76.8-34.458 76.8-76.8-34.458-76.8-76.8-76.8zM76.8 192c-14.131 0-25.6-11.469-25.6-25.6s11.469-25.6 25.6-25.6 25.6 11.469 25.6 25.6-11.469 25.6-25.6 25.6z" />
<glyph unicode="&#xe909;" glyph-name="moon" d="M861.718 365.24c-5.845 5.912-14.548 7.873-22.487 5.278-34.483-11.712-70.058-17.645-105.697-17.645-181.708 0-329.566 147.834-329.566 329.521 0 36.162 6.172 72.325 18.3 107.485 2.706 7.873 0.72 16.599-5.149 22.487-5.846 5.912-14.547 7.917-22.465 5.279-151.609-51.409-253.445-193.312-253.445-353.187 0-205.766 167.4-373.188 373.167-373.188 158.915 0 300.556 101.050 352.489 251.482 2.706 7.874 0.72 16.599-5.149 22.487v0zM514.378 134.894c-181.708 0-329.543 147.879-329.543 329.566 0 126.548 72.346 240.424 183.802 295.344-5.518-25.606-8.288-51.475-8.288-77.407 0-205.723 167.4-373.144 373.188-373.144 25.257 0 50.449 2.638 75.336 7.852-55.205-110.516-168.752-182.211-294.493-182.211v0z" />
<glyph unicode="&#xe90a;" glyph-name="rank" d="M305.835 842.923h-99.328c-31.403 0-54.955-23.552-54.955-54.955v-695.979c0-31.403 23.552-54.955 54.955-54.955h99.328c31.403 0 54.955 23.552 54.955 54.955v696.32c-0.341 31.061-23.893 54.613-54.955 54.613zM194.901 788.309c0 7.168 4.437 11.605 11.605 11.605h99.328c7.168 0 11.605-4.437 11.605-11.605v-695.979c0-7.168-4.437-11.605-11.605-11.605h-99.328c-7.168 0-11.605 4.437-11.605 11.605v695.979zM794.624 511.829h-99.328c-31.403 0-54.955-23.552-54.955-54.955v-364.544c0-31.403 23.552-54.955 54.955-54.955h99.328c30.72 0 54.955 24.235 54.955 54.955v364.544c-0.341 31.061-23.893 54.955-54.955 54.955zM683.691 456.875c0 7.168 4.437 11.605 11.605 11.605h99.328c7.168 0 11.605-4.437 11.605-11.605v-364.544c0-7.168-4.437-11.605-11.605-11.605h-99.328c-7.168 0-11.605 4.437-11.605 11.605v364.544zM550.912 677.376h-99.328c-31.403 0-54.955-23.552-54.955-54.955v-530.432c0-31.403 23.552-54.955 54.955-54.955h99.328c30.379 0 54.955 24.576 54.955 54.955v530.432c0 31.403-23.552 54.955-54.955 54.955zM439.979 622.421c0 7.168 4.437 11.605 11.605 11.605h95.232c1.365 0 3.072 0 4.096 0v0c7.168 0 11.605-4.437 11.605-11.605v-530.432c0-7.168-4.437-11.605-11.605-11.605h-99.328c-7.168 0-11.605 4.437-11.605 11.605v530.432z" />
<glyph unicode="&#xe90b;" d="M1020.473 449.762c0-281.795-228.438-510.232-510.236-510.232-281.799-0.003-510.237 228.437-510.237 510.232 0 281.8 228.438 510.238 510.236 510.238s510.237-228.438 510.237-510.238z" />
<glyph unicode="&#xe90c;" d="M409.325 320.030c-5.523 0-10 4.478-10 10v139.906c0 5.523 4.477 10 10 10s10-4.477 10-10v-139.906c0-5.522-4.477-10-10-10zM511.58 320.030c-5.523 0-10 4.478-10 10v190.348c0 5.523 4.477 10 10 10 5.522 0 10-4.477 10-10v-190.348c0-5.522-4.477-10-10-10zM613.854 320.030c-5.522 0-10 4.478-10 10v228.025c0 5.523 4.478 10 10 10s10-4.477 10-10v-228.025c0-5.522-4.478-10-10-10z" />
<glyph unicode="&#xe90d;" d="M679.774 221.79h-339.076c-32.223 0-58.438 26.221-58.438 58.451v339.062c0 32.221 26.215 58.435 58.438 58.435h339.075c32.222 0 58.437-26.214 58.437-58.435v-339.062c0-32.23-26.215-58.451-58.436-58.451zM340.698 657.738c-21.194 0-38.438-17.242-38.438-38.435v-339.062c0-21.202 17.243-38.451 38.438-38.451h339.075c21.194 0 38.437 17.249 38.437 38.451v339.062c0 21.193-17.242 38.435-38.437 38.435h-339.075z" />
<glyph unicode="&#xe90e;" glyph-name="search" d="M177.166 797.027c58.927 67.012 144.962 109.403 234.040 114.948 83.372 6.24 168.791-19.297 234.714-70.789 80.014-60.614 131.109-157.953 134.549-258.375 4.768-87.005-26.036-174.867-82.737-240.825 88.281-88.336 176.662-176.616 264.922-264.973-19.217-19.158-38.356-38.395-57.575-57.532-89.177 89.132-178.272 178.323-267.49 267.415-73.693-53.958-169.605-76.175-259.595-60.573-89.036 14.249-171.138 65.78-223.466 139.133-33.069 45.709-54.614 99.744-61.848 155.708-13.833 98.411 17.668 202.23 84.486 275.862zM401.804 870.459c-14.171-2.126-28.46-3.776-42.213-7.889-87.904-21.622-164.003-85.516-201.405-167.851-21.345-45.868-30.646-97.22-27.168-147.68 5.326-97.497 61.908-190.148 145.578-240.227 86.334-53.879 200.471-59.264 291.594-14.051 87.625 41.474 152.336 127.566 167.739 223.296 7.452 43.763 5.366 89.252-6.58 132.040-24.643 92.59-96.19 170.951-185.962 204.278-44.855 17.329-93.845 22.972-141.583 18.084z" />
<glyph unicode="&#xe90f;" glyph-name="font_bigger" d="M826.906 185.6l-78.278 189.734h-220.672l-80.525-189.734h-84.326l211.462 471.962 26.842 55.085h70.304l30.861-55.085 208.653-471.962h-84.32zM639.84 639.046l-85.062-200.467h167.77l-82.707 200.467zM278.771 291.014h-63.245v84.32h-84.326v63.251h84.326v84.326h63.245v-84.326h84.333v-63.251h-84.333v-84.32z" />
<glyph unicode="&#xe910;" glyph-name="sun" d="M512 704q69.673 0 128.492-34.324t93.164-93.164 34.324-128.492-34.324-128.492-93.164-93.164-128.492-34.324-128.492 34.324-93.164 93.164-34.324 128.492 34.324 128.492 93.164 93.164 128.492 34.324zM240.66 219.341q17.674 0 30.167-12.677t12.493-30.331q0-17.326-12.677-30.003l-60.334-60.334q-12.677-12.677-30.003-12.677-17.674 0-30.167 12.493t-12.493 30.167q0 18.002 12.329 30.331l60.334 60.334q12.677 12.677 30.331 12.677zM512 106.66q17.674 0 30.167-12.493t12.493-30.167v-85.34q0-17.674-12.493-30.167t-30.167-12.493-30.167 12.493-12.493 30.167v85.34q0 17.674 12.493 30.167t30.167 12.493zM42.66 490.66h85.34q17.674 0 30.167-12.493t12.493-30.167-12.493-30.167-30.167-12.493h-85.34q-17.674 0-30.167 12.493t-12.493 30.167 12.493 30.167 30.167 12.493zM512 618.66q-70.676 0-120.668-49.992t-49.992-120.668 49.992-120.668 120.668-49.992 120.668 49.992 49.992 120.668-49.992 120.668-120.668 49.992zM783.667 219.341q17.326 0 30.003-12.677l60.334-60.334q12.677-12.677 12.677-30.331 0-17.326-12.677-30.003t-30.003-12.677q-17.674 0-30.331 12.677l-60.334 60.334q-12.329 12.329-12.329 30.003t12.493 30.331 30.167 12.677zM180.326 822.661q17.326 0 30.003-12.677l60.334-60.334q12.677-12.677 12.677-30.003 0-17.674-12.493-30.167t-30.167-12.493q-18.002 0-30.331 12.329l-60.334 60.334q-12.329 12.329-12.329 30.331 0 17.674 12.493 30.167t30.167 12.493zM512 960q17.674 0 30.167-12.493t12.493-30.167v-85.34q0-17.674-12.493-30.167t-30.167-12.493-30.167 12.493-12.493 30.167v85.34q0 17.674 12.493 30.167t30.167 12.493zM896 490.66h85.34q17.674 0 30.167-12.493t12.493-30.167-12.493-30.167-30.167-12.493h-85.34q-17.674 0-30.167 12.493t-12.493 30.167 12.493 30.167 30.167 12.493zM844.001 822.661q17.326 0 30.003-12.677t12.677-30.003q0-17.674-12.677-30.331l-60.334-60.334q-12.329-12.329-30.003-12.329-18.33 0-30.495 12.165t-12.165 30.495q0 17.674 12.329 30.003l60.334 60.334q12.677 12.677 30.331 12.677z" />
<glyph unicode="&#xe911;" glyph-name="trash" d="M614.4 162.133c-18.876 0-34.133 15.258-34.133 34.133v375.467c0 18.876 15.258 34.133 34.133 34.133s34.133-15.258 34.133-34.133v-375.467c0-18.876-15.258-34.133-34.133-34.133zM409.6 162.133c-18.876 0-34.133 15.258-34.133 34.133v375.467c0 18.876 15.258 34.133 34.133 34.133s34.133-15.258 34.133-34.133v-375.467c0-18.876-15.258-34.133-34.133-34.133zM955.733 742.4h-170.667v68.267c0 56.457-45.568 102.4-101.615 102.4h-342.118c-56.457 0-102.4-45.943-102.4-102.4v-68.267h-170.667c-18.876 0-34.133-15.258-34.133-34.133s15.258-34.133 34.133-34.133h887.467c18.876 0 34.133 15.258 34.133 34.133s-15.258 34.133-34.133 34.133zM307.2 810.667c0 18.807 15.326 34.133 34.133 34.133h342.118c18.705 0 33.348-14.985 33.348-34.133v-68.267h-409.6v68.267zM751.070-42.667h-477.935c-56.457 0-102.4 45.943-102.4 102.4v512.512c0 18.842 15.292 34.133 34.133 34.133s34.133-15.292 34.133-34.133v-512.512c0-18.842 15.326-34.133 34.133-34.133h477.935c18.842 0 34.133 15.292 34.133 34.133v511.113c0 18.842 15.258 34.133 34.133 34.133s34.133-15.292 34.133-34.133v-511.113c0-56.457-45.943-102.4-102.4-102.4z" />
<glyph unicode="&#xe912;" glyph-name="up" d="M80.294 272.633c-10.392-10.427-16.129-24.356-16.129-39.258 0-14.867 5.737-28.795 16.165-39.258 10.427-10.427 24.392-16.202 39.294-16.165 14.831 0 28.686 5.737 39.078 16.202l353.070 353.034 352.998-353.036c21.65-21.65 56.902-21.65 78.552 0 10.427 10.427 16.165 24.356 16.165 39.222 0 14.902-5.737 28.831-16.165 39.258l-431.55 431.442-431.478-431.442z" />
<glyph unicode="&#xe913;" glyph-name="setting" d="M509.084 620.516c-88.368 0-160-71.624-160-160 0-88.358 71.632-160 160-160 88.374 0 160 71.642 160 160 0 88.376-71.625 160-160 160zM509.084 332.516c-70.688 0-128 57.313-128 128s57.311 128 128 128c70.688 0 128-57.312 128-128s-57.312-128-128-128zM896.552 571.805h-52.345c-4.906 16-10.734 27.019-17.539 41.090l36.602 35.276c18.751 18.748 18.742 48.492 0 67.226l-90.506 90.176c-18.742 18.742-49.14 18.577-67.884-0.165l-35.584-34.879c-14.618 7.507-30.32 13.932-46.319 19.363v48.624c0 26.509-19.917 53.289-46.423 53.289h-127.999c-26.508 0-49.576-26.78-49.576-53.289v-46.64c-16-5.344-31.494-11.851-46.744-19.439l-32.411 32.805c-18.742 18.742-48.931 18.742-67.681 0l-90.412-90.507c-18.74-18.75-18.694-49.14 0.049-67.883l32.742-30.074c-7.623-15.274-14.139-28.973-19.514-44.972h-46.452c-26.516 0-49.576-26.78-49.576-53.289v-128c0-26.5 23.060-42.711 49.576-42.711h48.265c5.444-16 11.983-33.746 19.531-48.466l-34.523-35.824c-18.751-18.751-18.742-49.805 0-68.553l90.506-90.833c18.742-18.735 49.133-18.915 67.884-0.164l35.548 36.252c14.156-6.845 27.212-12.793 43.212-17.716v-51.983c0-26.516 23.068-42.711 49.576-42.711h128c26.507 0 46.423 16.195 46.423 42.711v53.97c16 5 29.265 10.89 42.796 17.64l38.722-38.328c18.751-18.75 49.334-18.75 68.085 0l90.604 90.501c18.741 18.749 18.798 49.138 0.048 67.889l-38.389 41.055c6.72 13.5 12.596 28.558 17.563 44.559h54.149c26.507 0 46.424 16.212 46.424 42.711v128c0 26.509-19.918 53.289-46.424 53.289zM894.976 416c0-8.842-6.12-20.195-14.955-20.195h-68.618c-6.859-32-20.749-71.010-40.218-102.574l46.305-45.247c6.249-6.251 6.249-15.852 0-22.101l-67.884-67.612c-6.249-6.25-16.374-6.119-22.624 0.131l-44.663 44.206c-31.821-21.547-75.343-37.091-107.343-45.341v-61.265c0-8.842-6.12-20.195-14.955-20.195h-96c-8.836 0-17.045 11.353-17.045 20.195v61.531c-32 8.374-74.166 24.032-105.844 45.593l-44.334-44.594c-6.25-6.25-16.244-6.25-22.494 0l-67.818 67.875c-6.25 6.25-6.217 16.375 0.032 22.626l46.986 44.87c-19.26 31.391-32.992 69.902-39.805 101.902h-69.68c-8.836 0-17.045 11.353-17.045 20.195v96c0 8.835 8.209 11.805 17.045 11.805h73.851c8.711 32 23.165 69.864 42.837 98.903l-54.156 55.206c-6.25 6.249-6.25 16.899 0 23.148l67.883 68.145c6.25 6.249 16.374 6.381 22.624 0.131l55.8-56.246c28.765 17.742 62.117 31.033 94.118 38.407v92.304h128v-92.032c32-7.274 66.67-20.492 95.569-38.216l56.176 55.913c6.249 6.25 16.505 6.25 22.755 0l67.949-67.883c6.249-6.25 6.282-16.375 0.032-22.624l-53.53-55.654c19.883-29.187 34.531-67.503 43.305-99.504h72.789c8.835 0 14.955-2.97 14.955-11.805v-95.999z" />
<glyph unicode="&#xe914;" glyph-name="close" d="M810 686l-238-238 238-238-60-60-238 238-238-238-60 60 238 238-238 238 60 60 238-238 238 238z" />
<glyph unicode="&#xe9ba;" glyph-name="list" d="M0 960h256v-256h-256zM384 896h640v-128h-640zM0 576h256v-256h-256zM384 512h640v-128h-640zM0 192h256v-256h-256zM384 128h640v-128h-640z" />
</font>
</defs>
</svg>
